/* XPM */
static char *greenpause[]={
"32 32 3 1",
". c None",
"a c #000000",
"# c #00ff00",
"...........########.............",
".........#############..........",
".......##################.......",
"......####################......",
".....#####################......",
"...########################.....",
"..##########################....",
"..######aaaaa###aaaaa#######....",
"..######aaaaa###aaaaa########...",
".#######aaaaa###aaaaa########...",
".#######aaaaa###aaaaa#########..",
".#######aaaaa###aaaaa##########.",
"########aaaaa###aaaaa##########.",
"########aaaaa###aaaaa##########.",
"########aaaaa###aaaaa##########.",
"########aaaaa###aaaaa##########.",
"########aaaaa###aaaaa##########.",
"########aaaaa###aaaaa##########.",
"########aaaaa###aaaaa##########.",
"########aaaaa###aaaaa#########..",
".#######aaaaa###aaaaa#########..",
"..######aaaaa###aaaaa#########..",
"..######aaaaa###aaaaa########...",
"...#####aaaaa###aaaaa########...",
"...#########################....",
"....########################....",
".....#####################......",
".....####################.......",
".......#################........",
".........############...........",
"...........#########............",
"................................"};
