/* XPM */
static char *greenplay[]={
"32 32 3 1",
". c None",
"a c #000000",
"# c #00ff00",
"...........########.............",
".........#############..........",
".......##################.......",
"......####################......",
".....#####aa##############......",
"...#######aaa##############.....",
"..########aaaa##############....",
"..########aaaaa#############....",
"..########aaaaaa#############...",
".#########aaaaaaa############...",
".#########aaaaaaaa############..",
".#########aaaaaaaaa############.",
"##########aaaaaaaaaa###########.",
"##########aaaaaaaaaaa##########a",
"##########aaaaaaaaaaaa#########a",
"##########aaaaaaaaaaaaa########a",
"##########aaaaaaaaaaa##########a",
"##########aaaaaaaaaa###########a",
"##########aaaaaaaaa############a",
"##########aaaaaaaa############a.",
".#########aaaaaaa#############a.",
"..########aaaaaa##############a.",
"..########aaaaa##############a..",
"...#######aaaa###############a..",
"...#######aaa###############a...",
"....########################a...",
".....#####################aa....",
".....####################a......",
".......#################a.......",
".........############aaa........",
"...........#########a...........",
"............aaaaaaaa............"};
